<svg width="22" height="22" viewBox="0 0 22 22" fill="none" xmlns="http://www.w3.org/2000/svg">
<path d="M14.803 0H6.28158C4.616 0.00126921 3.019 0.663482 1.84126 1.84123C0.663512 3.01897 0.00129973 4.61597 3.05176e-05 6.28156V14.803C0.00104589 16.4687 0.663146 18.066 1.84092 19.2439C3.01869 20.4219 4.61584 21.0842 6.28158 21.0855H14.803C16.4687 21.084 18.0657 20.4215 19.2434 19.2436C20.4211 18.0657 21.0833 16.4686 21.0845 14.803V6.28156C21.0838 4.61582 20.4217 3.01852 19.2439 1.84067C18.066 0.662812 16.4687 0.000761945 14.803 0ZM18.9645 14.803C18.9642 15.9066 18.5257 16.9649 17.7453 17.7453C16.965 18.5257 15.9066 18.9642 14.803 18.9645H6.28158C5.73513 18.9645 5.19403 18.8568 4.68919 18.6477C4.18435 18.4385 3.72565 18.132 3.33929 17.7455C2.95294 17.3591 2.6465 16.9003 2.43747 16.3954C2.22843 15.8905 2.12091 15.3494 2.12104 14.803V6.28156C2.12091 5.73515 2.22844 5.19407 2.43748 4.68923C2.64653 4.1844 2.95299 3.72569 3.33935 3.33932C3.72572 2.95296 4.18443 2.6465 4.68926 2.43745C5.1941 2.22841 5.73518 2.12088 6.28158 2.12101H14.803C15.9064 2.12126 16.9645 2.55969 17.7447 3.33988C18.5249 4.12008 18.9633 5.17819 18.9635 6.28156L18.9645 14.803Z" fill="#F5F5F5"/>
<path d="M10.5433 5.09153C7.5357 5.09153 5.0917 7.53648 5.0917 10.5431C5.0917 13.5497 7.53666 15.9946 10.5433 15.9946C13.5499 15.9946 15.9948 13.5497 15.9948 10.5431C15.9948 7.53648 13.5508 5.09153 10.5433 5.09153ZM10.5433 13.8736C9.65994 13.8738 8.81275 13.523 8.18807 12.8985C7.56338 12.274 7.21236 11.4269 7.21223 10.5436C7.2121 9.66024 7.56288 8.81306 8.18739 8.18837C8.8119 7.56368 9.65898 7.21266 10.5423 7.21253C11.4256 7.21241 12.2728 7.56318 12.8975 8.18769C13.5222 8.8122 13.8732 9.65929 13.8733 10.5426C13.8735 11.4259 13.5227 12.2731 12.8982 12.8978C12.2737 13.5225 11.4266 13.8735 10.5433 13.8736ZM16.0063 3.82544C16.2646 3.82563 16.517 3.90238 16.7317 4.046C16.9464 4.18961 17.1137 4.39364 17.2124 4.63231C17.3112 4.87097 17.337 5.13355 17.2865 5.38687C17.2361 5.64019 17.1117 5.87287 16.9291 6.0555C16.7464 6.23814 16.5138 6.36254 16.2604 6.41297C16.0071 6.46341 15.7445 6.43762 15.5059 6.33886C15.2672 6.24011 15.0632 6.07282 14.9196 5.85814C14.776 5.64346 14.6992 5.39103 14.699 5.13274C14.699 4.412 15.1878 3.82544 16.0063 3.82544Z" fill="#F5F5F5"/>
</svg>
