<svg width="1024" height="1318" viewBox="0 0 1024 1318" fill="none" xmlns="http://www.w3.org/2000/svg">
<path fill-rule="evenodd" clip-rule="evenodd" d="M852.011 323.076C906.993 464.755 869.283 625.667 757.09 728.165H782.319C914.125 615.014 961.552 431.792 901.221 268.896C774.095 -74.3909 291.559 -88.2311 142.459 223.052H143.15C156.009 215.831 210.256 226.974 220.374 234.262C227.283 224.5 230.158 221.358 237.803 212.555C406.983 17.922 747.864 54.7402 852.011 323.076ZM108.939 312.69C71.2293 463.752 121.241 625.088 241.368 728.187H266.597C154.405 625.689 116.717 464.777 171.699 323.098C173.17 319.31 174.73 315.588 176.313 311.888C171.543 310.439 165.281 310.261 153.87 310.15C142.86 310.038 131.805 310.484 120.818 311.42C116.695 311.754 112.75 312.2 108.939 312.69Z" fill="white"/>
<path fill-rule="evenodd" clip-rule="evenodd" d="M511.844 719.139C383.872 719.139 255.922 747.154 137.377 803.205H156.277C271.389 762.933 391.605 742.763 511.844 742.674C632.082 742.763 752.299 762.933 867.411 803.205H886.311C767.766 747.154 639.794 719.139 511.844 719.139Z" fill="white"/>
<path fill-rule="evenodd" clip-rule="evenodd" d="M529.473 181.308C602.552 230.741 632.64 304.555 636.072 395.754C636.139 397.671 636.183 397.96 636.406 395.888C646.391 308.21 606.764 216.722 530.075 180.238C524.035 177.363 523.834 177.497 529.473 181.308Z" fill="white"/>
<path fill-rule="evenodd" clip-rule="evenodd" d="M539.213 134.996C650.024 147.61 733.31 212.978 789.674 308.478C790.878 310.506 791.101 310.818 790.142 308.411C751.185 208.899 646.703 130.538 539.324 133.435C530.654 133.681 530.565 134.015 539.213 134.996Z" fill="white"/>
<path fill-rule="evenodd" clip-rule="evenodd" d="M680.869 246.52C586.216 311.955 500.054 327.623 397.556 283.717C395.394 282.781 395.015 282.714 397.222 284.096C488.376 340.572 599.12 321.917 681.716 247.88C688.38 241.907 688.201 241.461 680.869 246.52Z" fill="white"/>
<path fill-rule="evenodd" clip-rule="evenodd" d="M558.357 165.663C669.28 229.493 718.155 330.23 728.697 457.021C728.92 459.696 728.986 460.097 729.209 457.177C738.726 334.376 674.695 209.658 559.182 164.125C550.088 160.537 549.799 160.738 558.357 165.663Z" fill="white"/>
<path fill-rule="evenodd" clip-rule="evenodd" d="M486.972 137.737C377.698 160.292 300.429 232.903 252.624 333.105C251.598 335.245 251.42 335.557 252.156 333.083C282.288 230.451 379.504 142.974 486.727 136.199C495.352 135.664 495.485 135.976 486.972 137.737Z" fill="white"/>
<path fill-rule="evenodd" clip-rule="evenodd" d="M482.782 168.36C403.306 211.195 366.911 281.288 357.061 370.525C356.86 372.397 356.793 372.687 356.704 370.637C352.336 283.806 399.896 197.11 482.247 167.268C488.71 164.905 488.911 165.039 482.782 168.36Z" fill="white"/>
<path fill-rule="evenodd" clip-rule="evenodd" d="M486.749 205.044C450.376 234.106 434.062 276.964 429.649 329.294C429.56 330.409 429.56 330.587 429.471 329.361C425.593 277.677 446.989 224.545 486.459 204.398C489.579 202.815 489.668 202.904 486.749 205.044Z" fill="white"/>
<path fill-rule="evenodd" clip-rule="evenodd" d="M630.634 192.92C564.375 242.486 502.929 256.081 428.179 227.331C426.596 226.729 426.329 226.685 427.956 227.599C494.884 265.665 573.913 249.284 631.28 193.856C635.894 189.421 635.76 189.087 630.634 192.92Z" fill="white"/>
<path fill-rule="evenodd" clip-rule="evenodd" d="M585.971 159.289C534.777 191.739 489.067 198.157 436.001 172.861C434.887 172.327 434.686 172.282 435.823 173.062C482.67 204.732 541.374 197.266 586.394 160.024C590.027 157.038 589.938 156.793 585.971 159.289Z" fill="white"/>
<path fill-rule="evenodd" clip-rule="evenodd" d="M214.892 281.734C193.541 281.533 174.307 283.205 157.168 286.793C97.9293 299.118 103.925 260.628 142.994 253.585C164.746 249.64 185.629 247.612 205.598 247.545C239.318 247.412 245.38 248.169 271.233 270.88C296.975 293.501 324.098 323.945 346.474 354.122L315.741 354.545C301.566 337.54 285.898 321.048 268.759 305.135C244.845 282.937 247.542 282.046 214.892 281.734ZM371.347 390.784C395.149 429.564 416.099 474.673 434.218 526.111C435.154 528.763 437.45 530.502 440.258 530.68C504.913 534.714 570.682 539.483 637.521 545.033C640.106 545.233 642.424 544.097 643.828 541.935C656.13 522.991 669.948 484.412 685.304 426.221L685.75 426.265L694.665 390.762L704.359 349.174H703.958C706.878 336.226 709.842 322.675 712.851 308.5C712.985 307.854 713.542 307.408 714.188 307.408H715.347C715.748 307.408 716.082 307.564 716.35 307.854C716.617 308.144 716.751 308.478 716.707 308.879C709.887 401.214 687.8 484.791 650.403 559.564C649.155 562.038 646.703 563.486 643.917 563.353C556.752 558.806 480.642 555.753 415.564 554.193C412.31 554.126 409.613 551.83 408.989 548.621C397.957 490.831 375.358 437.253 341.192 387.909C350.843 388.823 360.939 389.781 371.347 390.784Z" fill="white"/>
<path fill-rule="evenodd" clip-rule="evenodd" d="M246.071 365.132L692.213 358.981C687.533 379.485 682.964 398.362 678.529 415.657C604.937 406.675 309.768 371.194 248.812 372.375L246.071 365.132Z" fill="white"/>
<path fill-rule="evenodd" clip-rule="evenodd" d="M440.214 463.217L660.097 480.623C656.843 490.697 653.701 499.745 650.603 507.791C598.117 496.447 470.256 469.257 441.283 467.14L440.214 463.217Z" fill="white"/>
<path fill-rule="evenodd" clip-rule="evenodd" d="M438.899 567.074C452.917 567.074 464.284 578.441 464.284 592.459C464.284 606.478 452.917 617.844 438.899 617.844C424.88 617.844 413.514 606.478 413.514 592.459C413.536 578.441 424.88 567.074 438.899 567.074Z" fill="white"/>
<path fill-rule="evenodd" clip-rule="evenodd" d="M610.665 570.708C624.683 570.708 636.05 582.074 636.05 596.092C636.05 610.111 624.683 621.477 610.665 621.477C596.646 621.477 585.28 610.111 585.28 596.092C585.28 582.074 596.646 570.708 610.665 570.708Z" fill="white"/>
<path d="M71.1848 1195.61L66.4153 1183.73H25.7193L20.9498 1195.86C19.0777 1200.58 17.4953 1203.79 16.1804 1205.44C14.8655 1207.09 12.7036 1207.94 9.69487 1207.94C7.15415 1207.94 4.90316 1207.05 2.9419 1205.29C0.980646 1203.53 0 1201.52 0 1199.29C0 1198 0.222843 1196.64 0.668584 1195.28C1.13661 1193.9 1.87211 1192 2.9196 1189.53L28.5051 1128.11C29.2406 1126.35 30.1098 1124.23 31.135 1121.75C32.1602 1119.26 33.2523 1117.21 34.4112 1115.58C35.5701 1113.95 37.0856 1112.64 38.98 1111.61C40.8744 1110.61 43.1923 1110.1 45.9782 1110.1C48.8309 1110.1 51.171 1110.61 53.0654 1111.61C54.9598 1112.62 56.4753 1113.93 57.6342 1115.51C58.7932 1117.1 59.7738 1118.81 60.5761 1120.64C61.3785 1122.47 62.4037 1124.92 63.6072 1127.95L89.7499 1188.99C91.8003 1193.65 92.8255 1197.02 92.8255 1199.13C92.8255 1201.32 91.8672 1203.35 89.9282 1205.17C87.9892 1207 85.6491 1207.92 82.9078 1207.92C81.3254 1207.92 79.9436 1207.65 78.8069 1207.11C77.6926 1206.58 76.7343 1205.87 75.9319 1204.93C75.1519 1203.99 74.3495 1202.57 73.458 1200.67C72.5888 1198.78 71.8534 1197.08 71.1848 1195.61ZM31.0681 1169.34H60.9773L45.889 1130.33L31.0681 1169.34ZM167.487 1126.52H127.549V1150.7H160.935C164.01 1150.7 166.35 1151.37 167.866 1152.67C169.381 1153.98 170.139 1155.74 170.139 1157.93C170.139 1160.13 169.381 1161.87 167.844 1163.16C166.284 1164.46 163.966 1165.1 160.935 1165.1H127.549V1196.26C127.549 1200.23 126.59 1203.15 124.696 1205.06C122.802 1206.98 120.395 1207.92 117.453 1207.92C114.444 1207.92 111.992 1206.96 110.12 1205.02C108.226 1203.08 107.268 1200.16 107.268 1196.26V1123.45C107.268 1120.68 107.713 1118.46 108.56 1116.72C109.429 1114.98 110.767 1113.71 112.616 1112.91C114.466 1112.13 116.806 1111.72 119.681 1111.72H167.487C170.719 1111.72 173.126 1112.42 174.686 1113.75C176.246 1115.11 177.048 1116.9 177.048 1119.08C177.048 1121.33 176.246 1123.14 174.686 1124.5C173.126 1125.83 170.719 1126.52 167.487 1126.52ZM283.58 1167.89V1186.03C283.58 1188.46 283.335 1190.38 282.845 1191.8C282.332 1193.25 281.418 1194.57 280.081 1195.7C278.722 1196.86 277.006 1198 274.911 1199.07C268.871 1202.14 263.054 1204.39 257.46 1205.82C251.866 1207.22 245.759 1207.94 239.162 1207.94C231.473 1207.94 224.453 1206.82 218.145 1204.59C211.816 1202.34 206.422 1199.11 201.965 1194.83C197.485 1190.58 194.053 1185.43 191.691 1179.37C189.284 1173.28 188.103 1166.53 188.103 1159.04C188.103 1151.69 189.261 1144.95 191.579 1138.85C193.919 1132.74 197.307 1127.57 201.831 1123.29C206.333 1119.04 211.816 1115.78 218.279 1113.53C224.742 1111.26 232.053 1110.14 240.254 1110.14C246.985 1110.14 252.958 1111.01 258.128 1112.71C263.321 1114.4 267.534 1116.54 270.765 1119.12C273.997 1121.71 276.426 1124.43 278.075 1127.33C279.702 1130.2 280.527 1132.76 280.527 1135.01C280.527 1137.42 279.569 1139.47 277.674 1141.17C275.78 1142.88 273.529 1143.73 270.877 1143.73C269.428 1143.73 268.024 1143.42 266.687 1142.75C265.327 1142.1 264.213 1141.21 263.299 1140.05C260.781 1136.35 258.686 1133.54 256.969 1131.65C255.231 1129.78 252.891 1128.17 249.971 1126.9C247.029 1125.61 243.285 1124.96 238.739 1124.96C234.058 1124.96 229.846 1125.74 226.169 1127.26C222.491 1128.77 219.349 1131 216.719 1133.92C214.111 1136.8 212.106 1140.39 210.702 1144.58C209.32 1148.81 208.629 1153.47 208.629 1158.59C208.629 1169.69 211.326 1178.23 216.719 1184.22C222.113 1190.2 229.623 1193.18 239.251 1193.18C243.932 1193.18 248.344 1192.6 252.467 1191.45C256.568 1190.29 260.758 1188.64 264.993 1186.48V1171.12H249.303C245.536 1171.12 242.661 1170.58 240.722 1169.52C238.783 1168.45 237.825 1166.62 237.825 1164.01C237.825 1161.92 238.65 1160.15 240.254 1158.8C241.859 1157.41 244.043 1156.72 246.851 1156.72H269.851C272.682 1156.72 275.067 1156.97 277.028 1157.44C278.989 1157.93 280.571 1158.97 281.753 1160.6C282.978 1162.16 283.58 1164.63 283.58 1167.89ZM323.296 1121.73V1148.86H367.067V1121.73C367.067 1117.88 368.003 1114.98 369.831 1113.04C371.681 1111.1 374.088 1110.14 377.097 1110.14C380.128 1110.14 382.602 1111.1 384.474 1113.02C386.368 1114.93 387.326 1117.85 387.326 1121.75V1196.28C387.326 1200.2 386.368 1203.1 384.451 1205.04C382.535 1206.98 380.061 1207.94 377.097 1207.94C374.043 1207.94 371.592 1206.98 369.786 1205.02C367.981 1203.06 367.067 1200.16 367.067 1196.28V1164.48H323.296V1196.28C323.296 1200.2 322.337 1203.1 320.421 1205.04C318.504 1206.98 316.052 1207.94 313.066 1207.94C310.013 1207.94 307.561 1206.98 305.756 1205.02C303.928 1203.06 303.037 1200.16 303.037 1196.28V1121.75C303.037 1117.88 303.951 1115 305.733 1113.06C307.516 1111.12 309.968 1110.16 313.066 1110.16C316.097 1110.16 318.571 1111.12 320.465 1113.04C322.337 1114.91 323.296 1117.83 323.296 1121.73ZM473.198 1195.61L468.429 1183.73H427.733L422.963 1195.86C421.091 1200.58 419.509 1203.79 418.194 1205.44C416.879 1207.09 414.717 1207.94 411.708 1207.94C409.168 1207.94 406.917 1207.05 404.955 1205.29C402.994 1203.53 402.014 1201.52 402.014 1199.29C402.014 1198 402.236 1196.64 402.682 1195.28C403.15 1193.9 403.886 1192 404.933 1189.53L430.519 1128.11C431.254 1126.35 432.123 1124.23 433.148 1121.75C434.174 1119.26 435.266 1117.21 436.425 1115.58C437.584 1113.95 439.099 1112.64 440.993 1111.61C442.888 1110.61 445.206 1110.1 447.992 1110.1C450.844 1110.1 453.185 1110.61 455.079 1111.61C456.973 1112.62 458.489 1113.93 459.648 1115.51C460.807 1117.1 461.787 1118.81 462.59 1120.64C463.392 1122.47 464.417 1124.92 465.621 1127.95L491.763 1188.99C493.814 1193.65 494.839 1197.02 494.839 1199.13C494.839 1201.32 493.881 1203.35 491.942 1205.17C490.003 1207 487.663 1207.92 484.921 1207.92C483.339 1207.92 481.957 1207.65 480.82 1207.11C479.706 1206.58 478.748 1205.87 477.945 1204.93C477.165 1203.99 476.363 1202.57 475.472 1200.67C474.602 1198.78 473.845 1197.08 473.198 1195.61ZM433.059 1169.34H462.969L447.88 1130.33L433.059 1169.34ZM536.159 1121.62L575.117 1177.4V1121.11C575.117 1117.45 575.964 1114.71 577.613 1112.88C579.262 1111.06 581.513 1110.12 584.321 1110.12C587.219 1110.12 589.514 1111.01 591.208 1112.86C592.88 1114.69 593.727 1117.45 593.727 1121.11V1195.5C593.727 1203.81 590.094 1207.94 582.828 1207.94C581.001 1207.94 579.374 1207.69 577.903 1207.18C576.454 1206.69 575.072 1205.91 573.824 1204.84C572.531 1203.77 571.373 1202.5 570.281 1201.05C569.189 1199.63 568.096 1198.13 567.004 1196.64L529.005 1141.57V1196.95C529.005 1200.56 528.113 1203.3 526.353 1205.15C524.548 1207 522.274 1207.92 519.511 1207.92C516.636 1207.92 514.34 1207 512.602 1205.13C510.841 1203.26 509.994 1200.52 509.994 1196.95V1123.98C509.994 1120.88 510.373 1118.46 511.086 1116.69C511.955 1114.76 513.404 1113.17 515.388 1111.95C517.393 1110.74 519.555 1110.12 521.873 1110.12C523.723 1110.12 525.283 1110.41 526.553 1110.97C527.868 1111.55 529.005 1112.28 529.986 1113.24C530.966 1114.2 531.969 1115.4 532.994 1116.92C533.997 1118.41 535.067 1119.97 536.159 1121.62ZM736.208 1176.45C736.208 1179.46 735.45 1182.73 733.845 1186.23C732.285 1189.73 729.811 1193.16 726.424 1196.55C723.058 1199.94 718.757 1202.68 713.542 1204.8C708.304 1206.89 702.198 1207.94 695.222 1207.94C689.962 1207.94 685.148 1207.47 680.824 1206.53C676.523 1205.58 672.578 1204.1 669.057 1202.1C665.535 1200.12 662.281 1197.46 659.317 1194.21C656.687 1191.25 654.414 1187.92 652.564 1184.25C650.692 1180.57 649.31 1176.62 648.374 1172.46C647.438 1168.27 646.97 1163.85 646.97 1159.15C646.97 1151.55 648.129 1144.73 650.492 1138.71C652.832 1132.67 656.197 1127.53 660.565 1123.25C664.956 1118.97 670.06 1115.71 675.921 1113.46C681.805 1111.23 688.068 1110.12 694.709 1110.12C702.822 1110.12 710.02 1111.64 716.35 1114.71C722.657 1117.74 727.516 1121.53 730.881 1126.03C734.246 1130.54 735.94 1134.75 735.94 1138.76C735.94 1140.97 735.093 1142.88 733.466 1144.58C731.839 1146.25 729.856 1147.09 727.516 1147.09C724.93 1147.09 722.969 1146.49 721.699 1145.36C720.384 1144.2 718.957 1142.19 717.353 1139.34C714.701 1134.64 711.603 1131.14 708.037 1128.82C704.449 1126.5 700.058 1125.34 694.821 1125.34C686.485 1125.34 679.866 1128.33 674.918 1134.3C669.971 1140.3 667.497 1148.79 667.497 1159.82C667.497 1167.18 668.589 1173.3 670.773 1178.18C672.935 1183.07 676.033 1186.72 680.044 1189.13C684.056 1191.53 688.736 1192.74 694.107 1192.74C699.924 1192.74 704.85 1191.38 708.884 1188.64C712.918 1185.9 715.949 1181.91 717.999 1176.58C718.868 1174.08 719.938 1172.06 721.208 1170.47C722.456 1168.91 724.507 1168.11 727.337 1168.11C729.767 1168.11 731.839 1168.89 733.555 1170.52C735.338 1172.12 736.208 1174.11 736.208 1176.45ZM818.447 1195.61L813.677 1183.73H772.981L768.212 1195.86C766.34 1200.58 764.757 1203.79 763.442 1205.44C762.127 1207.09 759.966 1207.94 756.957 1207.94C754.416 1207.94 752.165 1207.05 750.204 1205.29C748.242 1203.53 747.262 1201.52 747.262 1199.29C747.262 1198 747.485 1196.64 747.931 1195.28C748.399 1193.9 749.134 1192 750.204 1189.53L775.789 1128.11C776.525 1126.35 777.394 1124.23 778.419 1121.75C779.444 1119.26 780.536 1117.21 781.695 1115.58C782.854 1113.95 784.37 1112.64 786.264 1111.61C788.159 1110.61 790.476 1110.1 793.262 1110.1C796.115 1110.1 798.455 1110.61 800.35 1111.61C802.244 1112.62 803.759 1113.93 804.918 1115.51C806.077 1117.1 807.058 1118.81 807.86 1120.64C808.663 1122.47 809.688 1124.92 810.891 1127.95L837.034 1188.99C839.085 1193.65 840.11 1197.02 840.11 1199.13C840.11 1201.32 839.151 1203.35 837.212 1205.17C835.273 1207 832.933 1207.92 830.192 1207.92C828.61 1207.92 827.228 1207.65 826.091 1207.11C824.977 1206.58 824.018 1205.87 823.216 1204.93C822.436 1203.99 821.634 1202.57 820.742 1200.67C819.851 1198.78 819.115 1197.08 818.447 1195.61ZM778.33 1169.34H808.239L793.151 1130.33L778.33 1169.34ZM882.188 1165.9H875.078V1196.26C875.078 1200.27 874.142 1203.19 872.27 1205.09C870.398 1206.98 867.968 1207.92 864.982 1207.92C861.75 1207.92 859.232 1206.94 857.449 1204.95C855.666 1202.97 854.797 1200.09 854.797 1196.26V1123.45C854.797 1119.32 855.777 1116.34 857.739 1114.49C859.7 1112.64 862.865 1111.7 867.233 1111.7H900.218C904.764 1111.7 908.665 1111.88 911.896 1112.26C915.128 1112.64 918.047 1113.35 920.633 1114.49C923.775 1115.74 926.561 1117.52 928.968 1119.84C931.375 1122.18 933.203 1124.87 934.451 1127.95C935.699 1131.03 936.345 1134.3 936.345 1137.76C936.345 1144.8 934.25 1150.44 930.016 1154.67C925.803 1158.88 919.407 1161.87 910.871 1163.63C914.459 1165.44 917.914 1168.11 921.19 1171.63C924.444 1175.15 927.386 1178.92 929.949 1182.89C932.512 1186.88 934.518 1190.44 935.966 1193.65C937.393 1196.84 938.106 1199.05 938.106 1200.27C938.106 1201.5 937.682 1202.75 936.835 1203.97C935.988 1205.2 934.852 1206.18 933.381 1206.87C931.932 1207.58 930.239 1207.92 928.322 1207.92C926.071 1207.92 924.154 1207.4 922.594 1206.4C921.056 1205.4 919.719 1204.1 918.605 1202.57C917.49 1201.03 915.975 1198.73 914.058 1195.75L905.923 1182.98C903.004 1178.3 900.396 1174.73 898.123 1172.3C895.827 1169.83 893.487 1168.16 891.102 1167.26C888.762 1166.35 885.776 1165.9 882.188 1165.9ZM893.799 1126.12H875.078V1152.15H893.22C898.101 1152.15 902.201 1151.75 905.522 1150.97C908.843 1150.17 911.361 1148.81 913.122 1146.89C914.883 1144.98 915.752 1142.32 915.752 1138.98C915.752 1136.33 915.061 1134.03 913.635 1132.03C912.231 1130.02 910.269 1128.53 907.751 1127.53C905.433 1126.59 900.775 1126.12 893.799 1126.12ZM1013.59 1127.57H991.483V1196.26C991.483 1200.23 990.547 1203.15 988.675 1205.06C986.803 1206.98 984.396 1207.92 981.432 1207.92C978.423 1207.92 975.949 1206.96 974.077 1205.02C972.183 1203.08 971.224 1200.18 971.224 1196.26V1127.57H949.116C945.639 1127.57 943.076 1126.84 941.404 1125.41C939.733 1123.96 938.864 1122.04 938.864 1119.66C938.864 1117.21 939.755 1115.27 941.493 1113.84C943.254 1112.42 945.772 1111.7 949.116 1111.7H1013.61C1017.14 1111.7 1019.72 1112.44 1021.44 1113.91C1023.13 1115.38 1024 1117.3 1024 1119.66C1024 1122.04 1023.11 1123.96 1021.39 1125.41C1019.63 1126.86 1017.05 1127.57 1013.59 1127.57Z" fill="white"/>
<path d="M114.912 1286.52C114.912 1289.66 114.11 1292.5 112.483 1294.99C110.878 1297.51 108.493 1299.47 105.373 1300.88C102.253 1302.3 98.5309 1302.99 94.2518 1302.99C89.1258 1302.99 84.869 1302.01 81.5482 1300.1C79.1858 1298.71 77.2691 1296.84 75.7982 1294.5C74.3272 1292.18 73.5695 1289.91 73.5695 1287.7C73.5695 1286.43 74.0151 1285.34 74.9066 1284.43C75.7981 1283.51 76.9125 1283.07 78.2943 1283.07C79.4086 1283.07 80.3447 1283.42 81.1025 1284.14C81.8825 1284.83 82.5288 1285.9 83.086 1287.3C83.7323 1288.95 84.4678 1290.36 85.2255 1291.45C86.0056 1292.56 87.0754 1293.48 88.4795 1294.21C89.8836 1294.92 91.7111 1295.28 94.0066 1295.28C97.1268 1295.28 99.6675 1294.55 101.607 1293.1C103.545 1291.65 104.548 1289.82 104.548 1287.64C104.548 1285.9 104.036 1284.49 102.966 1283.42C101.919 1282.33 100.537 1281.53 98.8652 1280.95C97.1937 1280.37 94.965 1279.77 92.1791 1279.12C88.4571 1278.25 85.3147 1277.23 82.7963 1276.05C80.2778 1274.87 78.272 1273.28 76.801 1271.26C75.3301 1269.23 74.5723 1266.73 74.5723 1263.7C74.5723 1260.85 75.3524 1258.28 76.9125 1256.06C78.4726 1253.83 80.7459 1252.13 83.71 1250.93C86.6742 1249.73 90.151 1249.12 94.1403 1249.12C97.3274 1249.12 100.091 1249.53 102.431 1250.31C104.749 1251.11 106.688 1252.16 108.248 1253.47C109.764 1254.79 110.9 1256.17 111.613 1257.62C112.327 1259.06 112.683 1260.47 112.683 1261.85C112.683 1263.1 112.237 1264.24 111.346 1265.24C110.454 1266.24 109.34 1266.73 108.025 1266.73C106.822 1266.73 105.908 1266.42 105.284 1265.84C104.66 1265.24 103.969 1264.24 103.256 1262.88C102.297 1260.91 101.183 1259.38 99.8458 1258.26C98.5309 1257.17 96.3913 1256.61 93.4495 1256.61C90.7304 1256.61 88.5241 1257.21 86.8748 1258.4C85.2033 1259.6 84.3564 1261.03 84.3564 1262.72C84.3564 1263.77 84.6461 1264.66 85.2033 1265.42C85.7828 1266.17 86.5628 1266.82 87.5657 1267.38C88.5686 1267.93 89.5716 1268.36 90.5745 1268.67C91.5997 1268.98 93.2712 1269.43 95.6113 1270.01C98.5532 1270.7 101.205 1271.46 103.59 1272.28C105.975 1273.11 107.981 1274.11 109.652 1275.29C111.324 1276.47 112.616 1277.96 113.552 1279.77C114.444 1281.69 114.912 1283.89 114.912 1286.52ZM123.738 1264.46H124.807V1258.62C124.807 1257.06 124.852 1255.83 124.919 1254.94C125.008 1254.05 125.231 1253.27 125.61 1252.65C125.988 1251.98 126.523 1251.44 127.237 1251.02C127.95 1250.62 128.73 1250.39 129.621 1250.39C130.847 1250.39 131.939 1250.86 132.942 1251.78C133.611 1252.4 134.012 1253.14 134.212 1254.05C134.391 1254.94 134.48 1256.19 134.48 1257.84V1264.44H138.024C139.383 1264.44 140.453 1264.77 141.166 1265.42C141.901 1266.06 142.258 1266.91 142.258 1267.91C142.258 1269.23 141.745 1270.14 140.698 1270.65C139.673 1271.17 138.202 1271.43 136.285 1271.43H134.48V1289.24C134.48 1290.76 134.524 1291.94 134.636 1292.74C134.747 1293.54 135.015 1294.21 135.483 1294.72C135.951 1295.24 136.709 1295.48 137.756 1295.48C138.313 1295.48 139.093 1295.39 140.052 1295.17C141.032 1294.97 141.79 1294.86 142.325 1294.86C143.105 1294.86 143.818 1295.17 144.442 1295.79C145.066 1296.42 145.378 1297.2 145.378 1298.11C145.378 1299.67 144.531 1300.85 142.838 1301.68C141.121 1302.52 138.692 1302.93 135.483 1302.93C132.452 1302.93 130.156 1302.41 128.618 1301.39C127.058 1300.36 126.033 1298.96 125.543 1297.15C125.052 1295.37 124.807 1292.96 124.807 1289.95V1271.34H123.537C122.133 1271.34 121.063 1271.01 120.328 1270.34C119.592 1269.7 119.236 1268.85 119.236 1267.82C119.236 1266.82 119.614 1265.97 120.394 1265.33C121.152 1264.79 122.289 1264.46 123.738 1264.46ZM173.438 1297.58C171.075 1299.4 168.824 1300.74 166.64 1301.66C164.456 1302.57 161.982 1303.01 159.263 1303.01C156.789 1303.01 154.583 1302.52 152.711 1301.54C150.839 1300.56 149.368 1299.25 148.365 1297.55C147.34 1295.86 146.849 1294.06 146.849 1292.09C146.849 1289.44 147.674 1287.19 149.368 1285.32C151.061 1283.45 153.357 1282.2 156.321 1281.55C156.923 1281.42 158.461 1281.08 160.89 1280.59C163.319 1280.1 165.414 1279.66 167.153 1279.21C168.891 1278.81 170.785 1278.3 172.814 1277.72C172.702 1275.16 172.19 1273.28 171.276 1272.1C170.362 1270.9 168.468 1270.32 165.615 1270.32C163.163 1270.32 161.291 1270.65 160.065 1271.34C158.817 1272.04 157.748 1273.06 156.856 1274.44C155.965 1275.82 155.341 1276.72 154.984 1277.16C154.605 1277.61 153.825 1277.81 152.622 1277.81C151.529 1277.81 150.593 1277.45 149.791 1276.76C149.011 1276.07 148.61 1275.18 148.61 1274.09C148.61 1272.37 149.212 1270.72 150.415 1269.09C151.619 1267.49 153.513 1266.15 156.054 1265.13C158.617 1264.08 161.804 1263.57 165.615 1263.57C169.872 1263.57 173.237 1264.08 175.666 1265.08C178.096 1266.09 179.812 1267.67 180.837 1269.85C181.84 1272.04 182.352 1274.91 182.352 1278.52C182.352 1280.79 182.33 1282.73 182.33 1284.32C182.308 1285.9 182.308 1287.68 182.286 1289.62C182.286 1291.45 182.598 1293.34 183.199 1295.33C183.801 1297.29 184.091 1298.56 184.091 1299.14C184.091 1300.14 183.623 1301.03 182.687 1301.86C181.751 1302.66 180.681 1303.08 179.5 1303.08C178.497 1303.08 177.516 1302.61 176.558 1301.68C175.577 1300.67 174.53 1299.34 173.438 1297.58ZM172.814 1283.51C171.387 1284.03 169.337 1284.58 166.618 1285.16C163.921 1285.74 162.027 1286.19 161.001 1286.46C159.954 1286.72 158.973 1287.26 158.015 1288.06C157.079 1288.86 156.589 1289.95 156.589 1291.4C156.589 1292.87 157.146 1294.12 158.26 1295.15C159.375 1296.17 160.823 1296.71 162.628 1296.71C164.545 1296.71 166.306 1296.28 167.933 1295.44C169.56 1294.59 170.741 1293.52 171.499 1292.18C172.368 1290.71 172.814 1288.31 172.814 1284.92V1283.51ZM190.888 1264.46H191.958V1258.62C191.958 1257.06 192.003 1255.83 192.07 1254.94C192.159 1254.05 192.382 1253.27 192.76 1252.65C193.139 1251.98 193.674 1251.44 194.387 1251.02C195.101 1250.62 195.881 1250.39 196.772 1250.39C197.998 1250.39 199.09 1250.86 200.093 1251.78C200.762 1252.4 201.163 1253.14 201.363 1254.05C201.542 1254.94 201.631 1256.19 201.631 1257.84V1264.44H205.174C206.534 1264.44 207.604 1264.77 208.317 1265.42C209.052 1266.06 209.409 1266.91 209.409 1267.91C209.409 1269.23 208.896 1270.14 207.849 1270.65C206.824 1271.17 205.353 1271.43 203.436 1271.43H201.631V1289.24C201.631 1290.76 201.675 1291.94 201.787 1292.74C201.898 1293.54 202.166 1294.21 202.634 1294.72C203.102 1295.24 203.859 1295.48 204.907 1295.48C205.464 1295.48 206.244 1295.39 207.202 1295.17C208.183 1294.97 208.941 1294.86 209.476 1294.86C210.256 1294.86 210.969 1295.17 211.593 1295.79C212.217 1296.42 212.529 1297.2 212.529 1298.11C212.529 1299.67 211.682 1300.85 209.988 1301.68C208.272 1302.52 205.843 1302.93 202.634 1302.93C199.603 1302.93 197.307 1302.41 195.769 1301.39C194.209 1300.36 193.184 1298.96 192.694 1297.15C192.203 1295.37 191.958 1292.96 191.958 1289.95V1271.34H190.688C189.284 1271.34 188.214 1271.01 187.478 1270.34C186.743 1269.7 186.386 1268.85 186.386 1267.82C186.386 1266.82 186.765 1265.97 187.545 1265.33C188.303 1264.79 189.417 1264.46 190.888 1264.46ZM243.129 1285.7H224.163C224.185 1287.9 224.631 1289.84 225.5 1291.54C226.369 1293.23 227.506 1294.48 228.955 1295.33C230.381 1296.19 231.963 1296.62 233.702 1296.62C234.861 1296.62 235.908 1296.48 236.867 1296.22C237.847 1295.95 238.761 1295.53 239.652 1294.95C240.566 1294.37 241.391 1293.74 242.126 1293.07C242.884 1292.41 243.865 1291.51 245.09 1290.38C245.581 1289.95 246.294 1289.73 247.208 1289.73C248.211 1289.73 249.013 1290.02 249.637 1290.56C250.239 1291.09 250.551 1291.87 250.551 1292.85C250.551 1293.72 250.194 1294.75 249.526 1295.93C248.835 1297.09 247.809 1298.22 246.405 1299.29C245.024 1300.36 243.285 1301.28 241.19 1301.97C239.095 1302.68 236.688 1303.04 233.969 1303.04C227.751 1303.04 222.915 1301.25 219.46 1297.71C216.006 1294.17 214.29 1289.35 214.29 1283.27C214.29 1280.42 214.713 1277.74 215.56 1275.29C216.407 1272.84 217.655 1270.74 219.282 1268.98C220.909 1267.24 222.937 1265.88 225.322 1264.95C227.707 1264.01 230.359 1263.54 233.278 1263.54C237.067 1263.54 240.321 1264.35 243.018 1265.95C245.737 1267.56 247.765 1269.61 249.124 1272.15C250.462 1274.69 251.152 1277.27 251.152 1279.88C251.152 1282.31 250.439 1283.91 249.058 1284.63C247.631 1285.34 245.67 1285.7 243.129 1285.7ZM224.163 1280.17H241.747C241.525 1276.87 240.611 1274.4 239.073 1272.75C237.513 1271.12 235.485 1270.3 232.944 1270.3C230.515 1270.3 228.553 1271.14 226.993 1272.79C225.433 1274.44 224.497 1276.92 224.163 1280.17ZM272.035 1287.53H260.803C259.087 1287.53 257.794 1287.12 256.903 1286.34C256.011 1285.54 255.565 1284.52 255.565 1283.25C255.565 1281.98 256.011 1280.93 256.858 1280.13C257.727 1279.35 259.02 1278.94 260.781 1278.94H272.013C273.774 1278.94 275.089 1279.35 275.936 1280.13C276.805 1280.93 277.228 1281.98 277.228 1283.25C277.228 1284.52 276.805 1285.54 275.936 1286.34C275.133 1287.12 273.818 1287.53 272.035 1287.53ZM319.797 1283.31C319.797 1286.21 319.351 1288.86 318.459 1291.29C317.546 1293.72 316.253 1295.82 314.537 1297.58C312.843 1299.34 310.793 1300.67 308.43 1301.61C306.068 1302.55 303.393 1303.01 300.451 1303.01C297.51 1303.01 294.857 1302.55 292.517 1301.59C290.177 1300.65 288.149 1299.29 286.411 1297.51C284.694 1295.75 283.402 1293.68 282.51 1291.27C281.619 1288.86 281.173 1286.21 281.173 1283.29C281.173 1280.35 281.619 1277.67 282.51 1275.22C283.424 1272.79 284.694 1270.7 286.388 1268.96C288.082 1267.24 290.11 1265.91 292.495 1264.97C294.88 1264.03 297.532 1263.57 300.429 1263.57C303.371 1263.57 306.023 1264.03 308.408 1264.99C310.793 1265.93 312.843 1267.29 314.559 1269.05C316.275 1270.79 317.568 1272.88 318.459 1275.31C319.351 1277.74 319.797 1280.39 319.797 1283.31ZM310.057 1283.31C310.057 1279.37 309.188 1276.29 307.45 1274.09C305.711 1271.9 303.371 1270.79 300.451 1270.79C298.557 1270.79 296.885 1271.28 295.437 1272.26C293.988 1273.24 292.874 1274.69 292.094 1276.6C291.314 1278.52 290.913 1280.77 290.913 1283.31C290.913 1285.85 291.291 1288.06 292.071 1289.95C292.852 1291.85 293.944 1293.3 295.37 1294.3C296.796 1295.3 298.49 1295.79 300.429 1295.79C303.371 1295.79 305.689 1294.7 307.427 1292.47C309.188 1290.29 310.057 1287.21 310.057 1283.31ZM333.458 1269.63L339.788 1291.29L345.538 1271.14C346.162 1269.03 346.608 1267.6 346.898 1266.82C347.187 1266.06 347.744 1265.33 348.569 1264.61C349.371 1263.92 350.508 1263.57 351.934 1263.57C353.383 1263.57 354.497 1263.92 355.322 1264.61C356.147 1265.3 356.704 1266.09 357.038 1266.89C357.372 1267.69 357.84 1269.12 358.442 1271.12L364.192 1291.27L370.589 1269.61C371.034 1268.05 371.369 1266.91 371.614 1266.22C371.881 1265.53 372.327 1264.9 372.929 1264.37C373.553 1263.83 374.422 1263.57 375.603 1263.57C376.762 1263.57 377.765 1263.97 378.612 1264.77C379.459 1265.57 379.882 1266.51 379.882 1267.6C379.882 1268.6 379.526 1270.1 378.79 1272.1L370.878 1295.33C370.188 1297.29 369.653 1298.71 369.274 1299.58C368.895 1300.45 368.293 1301.23 367.491 1301.92C366.688 1302.61 365.574 1302.95 364.125 1302.95C362.655 1302.95 361.518 1302.59 360.671 1301.86C359.824 1301.12 359.2 1300.23 358.799 1299.16C358.398 1298.09 357.952 1296.71 357.484 1295.01L351.957 1276.14L346.586 1295.01C345.872 1297.64 345.115 1299.63 344.29 1300.96C343.465 1302.3 341.994 1302.97 339.922 1302.97C338.852 1302.97 337.938 1302.77 337.203 1302.35C336.467 1301.94 335.843 1301.34 335.353 1300.56C334.863 1299.81 334.417 1298.89 334.038 1297.84C333.659 1296.8 333.369 1295.95 333.147 1295.33L325.301 1272.1C324.521 1269.92 324.12 1268.43 324.12 1267.6C324.12 1266.55 324.521 1265.62 325.368 1264.79C326.193 1263.95 327.218 1263.54 328.422 1263.54C330.026 1263.54 331.118 1264.01 331.698 1264.9C332.233 1265.86 332.834 1267.42 333.458 1269.63ZM395.35 1268.94V1270.12C397.066 1267.87 398.915 1266.22 400.944 1265.17C402.972 1264.12 405.29 1263.59 407.919 1263.59C410.482 1263.59 412.756 1264.15 414.784 1265.26C416.79 1266.35 418.305 1267.93 419.286 1269.99C419.932 1271.17 420.333 1272.44 420.534 1273.82C420.712 1275.2 420.824 1276.94 420.824 1279.06V1297.11C420.824 1299.05 420.378 1300.52 419.486 1301.5C418.595 1302.5 417.436 1302.99 416.01 1302.99C414.561 1302.99 413.402 1302.48 412.488 1301.45C411.597 1300.43 411.151 1298.98 411.151 1297.09V1280.93C411.151 1277.74 410.705 1275.29 409.814 1273.6C408.922 1271.9 407.162 1271.06 404.51 1271.06C402.793 1271.06 401.211 1271.57 399.785 1272.59C398.358 1273.62 397.333 1275.04 396.665 1276.85C396.197 1278.3 395.951 1280.97 395.951 1284.94V1297.11C395.951 1299.07 395.483 1300.54 394.592 1301.52C393.678 1302.5 392.497 1302.99 391.07 1302.99C389.666 1302.99 388.53 1302.48 387.616 1301.45C386.725 1300.43 386.279 1298.98 386.279 1297.09V1269.07C386.279 1267.22 386.68 1265.84 387.482 1264.95C388.285 1264.03 389.377 1263.59 390.781 1263.59C391.628 1263.59 392.408 1263.79 393.076 1264.19C393.767 1264.59 394.302 1265.19 394.725 1266C395.127 1266.8 395.35 1267.8 395.35 1268.94ZM457.53 1285.7H438.564C438.586 1287.9 439.032 1289.84 439.901 1291.54C440.771 1293.23 441.907 1294.48 443.356 1295.33C444.782 1296.19 446.365 1296.62 448.103 1296.62C449.262 1296.62 450.309 1296.48 451.268 1296.22C452.248 1295.95 453.162 1295.53 454.054 1294.95C454.967 1294.37 455.792 1293.74 456.527 1293.07C457.285 1292.41 458.266 1291.51 459.492 1290.38C459.982 1289.95 460.695 1289.73 461.609 1289.73C462.612 1289.73 463.414 1290.02 464.038 1290.56C464.64 1291.09 464.952 1291.87 464.952 1292.85C464.952 1293.72 464.595 1294.75 463.927 1295.93C463.236 1297.09 462.211 1298.22 460.807 1299.29C459.425 1300.36 457.686 1301.28 455.591 1301.97C453.496 1302.68 451.089 1303.04 448.37 1303.04C442.152 1303.04 437.316 1301.25 433.862 1297.71C430.407 1294.17 428.691 1289.35 428.691 1283.27C428.691 1280.42 429.114 1277.74 429.961 1275.29C430.808 1272.84 432.056 1270.74 433.683 1268.98C435.31 1267.24 437.338 1265.88 439.723 1264.95C442.108 1264.01 444.76 1263.54 447.68 1263.54C451.468 1263.54 454.722 1264.35 457.419 1265.95C460.138 1267.56 462.166 1269.61 463.526 1272.15C464.863 1274.69 465.554 1277.27 465.554 1279.88C465.554 1282.31 464.841 1283.91 463.459 1284.63C462.032 1285.34 460.049 1285.7 457.53 1285.7ZM438.564 1280.17H456.149C455.926 1276.87 455.012 1274.4 453.474 1272.75C451.914 1271.12 449.886 1270.3 447.345 1270.3C444.916 1270.3 442.955 1271.14 441.395 1272.79C439.834 1274.44 438.876 1276.92 438.564 1280.17ZM500.232 1297.47V1296.51C498.94 1298 497.647 1299.2 496.377 1300.14C495.106 1301.08 493.725 1301.79 492.254 1302.28C490.783 1302.77 489.156 1303.01 487.417 1303.01C485.099 1303.01 482.96 1302.52 480.976 1301.54C478.993 1300.56 477.277 1299.16 475.828 1297.33C474.379 1295.5 473.287 1293.36 472.552 1290.91C471.816 1288.46 471.438 1285.79 471.438 1282.93C471.438 1276.87 472.908 1272.15 475.873 1268.76C478.837 1265.37 482.737 1263.68 487.551 1263.68C490.359 1263.68 492.699 1264.17 494.616 1265.13C496.533 1266.09 498.405 1267.56 500.232 1269.56V1255.25C500.232 1253.27 500.634 1251.75 501.414 1250.75C502.216 1249.73 503.33 1249.21 504.801 1249.21C506.272 1249.21 507.386 1249.68 508.189 1250.62C508.969 1251.55 509.37 1252.94 509.37 1254.76V1297.49C509.37 1299.34 508.947 1300.72 508.1 1301.63C507.23 1302.55 506.138 1303.01 504.779 1303.01C503.464 1303.01 502.35 1302.52 501.503 1301.57C500.678 1300.61 500.232 1299.25 500.232 1297.47ZM481.177 1283.25C481.177 1285.88 481.6 1288.1 482.403 1289.95C483.205 1291.8 484.342 1293.19 485.768 1294.12C487.194 1295.06 488.732 1295.53 490.404 1295.53C492.12 1295.53 493.658 1295.08 495.062 1294.19C496.466 1293.3 497.603 1291.94 498.427 1290.11C499.252 1288.26 499.697 1285.99 499.697 1283.25C499.697 1280.68 499.274 1278.45 498.427 1276.6C497.58 1274.73 496.444 1273.33 495.017 1272.35C493.591 1271.37 492.031 1270.88 490.315 1270.88C488.554 1270.88 486.949 1271.37 485.567 1272.37C484.186 1273.37 483.094 1274.82 482.314 1276.69C481.578 1278.59 481.177 1280.77 481.177 1283.25ZM582.338 1285.7C582.338 1287.37 581.937 1289.15 581.112 1291.07C580.31 1292.99 579.017 1294.88 577.256 1296.73C575.518 1298.6 573.267 1300.09 570.548 1301.25C567.829 1302.41 564.642 1302.99 561.031 1302.99C558.29 1302.99 555.794 1302.75 553.543 1302.21C551.292 1301.7 549.242 1300.88 547.414 1299.78C545.586 1298.69 543.893 1297.24 542.355 1295.44C540.973 1293.81 539.814 1291.98 538.834 1289.95C537.853 1287.93 537.14 1285.76 536.649 1283.47C536.159 1281.17 535.914 1278.72 535.914 1276.16C535.914 1271.97 536.516 1268.22 537.741 1264.9C538.945 1261.58 540.706 1258.75 542.979 1256.39C545.252 1254.03 547.904 1252.24 550.958 1251C554.011 1249.77 557.265 1249.15 560.719 1249.15C564.932 1249.15 568.676 1249.99 571.974 1251.67C575.251 1253.34 577.769 1255.43 579.53 1257.88C581.268 1260.36 582.16 1262.68 582.16 1264.88C582.16 1266.08 581.714 1267.15 580.867 1268.09C580.02 1269 578.995 1269.47 577.769 1269.47C576.432 1269.47 575.406 1269.14 574.738 1268.51C574.047 1267.87 573.311 1266.78 572.487 1265.22C571.105 1262.63 569.5 1260.71 567.628 1259.42C565.756 1258.15 563.483 1257.5 560.764 1257.5C556.418 1257.5 552.986 1259.15 550.423 1262.43C547.86 1265.73 546.567 1270.41 546.567 1276.47C546.567 1280.53 547.147 1283.89 548.283 1286.59C549.42 1289.29 551.024 1291.27 553.119 1292.61C555.192 1293.92 557.644 1294.59 560.43 1294.59C563.461 1294.59 566.024 1293.83 568.119 1292.34C570.214 1290.85 571.796 1288.64 572.866 1285.72C573.311 1284.34 573.869 1283.22 574.537 1282.35C575.184 1281.49 576.253 1281.06 577.724 1281.06C578.995 1281.06 580.064 1281.51 580.956 1282.38C581.892 1283.29 582.338 1284.38 582.338 1285.7ZM627.424 1283.31C627.424 1286.21 626.979 1288.86 626.087 1291.29C625.173 1293.72 623.881 1295.82 622.165 1297.58C620.471 1299.34 618.42 1300.67 616.058 1301.61C613.696 1302.55 611.021 1303.01 608.079 1303.01C605.137 1303.01 602.485 1302.55 600.145 1301.59C597.805 1300.65 595.777 1299.29 594.038 1297.51C592.322 1295.75 591.03 1293.68 590.138 1291.27C589.247 1288.86 588.801 1286.21 588.801 1283.29C588.801 1280.35 589.247 1277.67 590.138 1275.22C591.052 1272.79 592.322 1270.7 594.016 1268.96C595.71 1267.24 597.738 1265.91 600.123 1264.97C602.508 1264.03 605.16 1263.57 608.057 1263.57C610.999 1263.57 613.651 1264.03 616.036 1264.99C618.42 1265.93 620.471 1267.29 622.187 1269.05C623.903 1270.79 625.196 1272.88 626.087 1275.31C626.979 1277.74 627.424 1280.39 627.424 1283.31ZM617.685 1283.31C617.685 1279.37 616.816 1276.29 615.077 1274.09C613.339 1271.9 610.999 1270.79 608.079 1270.79C606.185 1270.79 604.513 1271.28 603.065 1272.26C601.616 1273.24 600.502 1274.69 599.722 1276.6C598.942 1278.52 598.54 1280.77 598.54 1283.31C598.54 1285.85 598.919 1288.06 599.699 1289.95C600.479 1291.85 601.571 1293.3 602.998 1294.3C604.424 1295.3 606.118 1295.79 608.057 1295.79C610.999 1295.79 613.317 1294.7 615.055 1292.47C616.816 1290.29 617.685 1287.21 617.685 1283.31ZM644.675 1289.02V1297.11C644.675 1299.07 644.207 1300.54 643.293 1301.52C642.379 1302.5 641.198 1302.99 639.794 1302.99C638.412 1302.99 637.253 1302.5 636.362 1301.5C635.47 1300.5 635.024 1299.05 635.024 1297.11V1270.12C635.024 1265.77 636.607 1263.59 639.749 1263.59C641.354 1263.59 642.513 1264.1 643.226 1265.1C643.939 1266.13 644.318 1267.65 644.407 1269.63C645.566 1267.65 646.747 1266.13 647.973 1265.1C649.199 1264.08 650.826 1263.59 652.854 1263.59C654.882 1263.59 656.866 1264.1 658.782 1265.1C660.699 1266.13 661.657 1267.49 661.657 1269.16C661.657 1270.34 661.256 1271.32 660.432 1272.1C659.629 1272.88 658.738 1273.26 657.779 1273.26C657.423 1273.26 656.576 1273.04 655.216 1272.62C653.835 1272.17 652.653 1271.97 651.606 1271.97C650.179 1271.97 649.043 1272.35 648.129 1273.08C647.238 1273.84 646.524 1274.93 646.034 1276.4C645.544 1277.87 645.187 1279.61 645.009 1281.64C644.764 1283.65 644.675 1286.12 644.675 1289.02ZM674.918 1269.05V1270.23C676.746 1267.98 678.64 1266.31 680.601 1265.26C682.563 1264.21 684.791 1263.68 687.265 1263.68C690.252 1263.68 692.993 1264.44 695.511 1265.97C698.03 1267.51 700.013 1269.76 701.462 1272.73C702.911 1275.69 703.646 1279.19 703.646 1283.25C703.646 1286.23 703.223 1288.97 702.376 1291.47C701.529 1293.97 700.37 1296.06 698.899 1297.75C697.428 1299.45 695.712 1300.74 693.706 1301.66C691.7 1302.57 689.561 1303.01 687.265 1303.01C684.502 1303.01 682.184 1302.46 680.289 1301.34C678.417 1300.25 676.612 1298.6 674.918 1296.44V1311.02C674.918 1315.27 673.358 1317.41 670.26 1317.41C668.433 1317.41 667.229 1316.88 666.627 1315.76C666.026 1314.67 665.736 1313.07 665.736 1310.95V1269.09C665.736 1267.24 666.137 1265.86 666.939 1264.97C667.742 1264.06 668.834 1263.61 670.238 1263.61C671.597 1263.61 672.734 1264.08 673.603 1265.02C674.472 1265.95 674.918 1267.29 674.918 1269.05ZM693.884 1283.13C693.884 1280.57 693.483 1278.39 692.703 1276.56C691.923 1274.73 690.853 1273.31 689.471 1272.33C688.067 1271.34 686.552 1270.85 684.88 1270.85C682.206 1270.85 679.955 1271.9 678.127 1274C676.3 1276.11 675.364 1279.21 675.364 1283.29C675.364 1287.15 676.278 1290.16 678.083 1292.27C679.91 1294.41 682.161 1295.48 684.88 1295.48C686.485 1295.48 687.978 1295.01 689.338 1294.08C690.72 1293.14 691.812 1291.76 692.636 1289.89C693.483 1288.04 693.884 1285.79 693.884 1283.13ZM747.708 1283.31C747.708 1286.21 747.262 1288.86 746.37 1291.29C745.457 1293.72 744.164 1295.82 742.448 1297.58C740.754 1299.34 738.704 1300.67 736.341 1301.61C733.979 1302.55 731.304 1303.01 728.362 1303.01C725.42 1303.01 722.768 1302.55 720.428 1301.59C718.088 1300.65 716.06 1299.29 714.322 1297.51C712.605 1295.75 711.313 1293.68 710.421 1291.27C709.53 1288.86 709.084 1286.21 709.084 1283.29C709.084 1280.35 709.53 1277.67 710.421 1275.22C711.335 1272.79 712.605 1270.7 714.299 1268.96C715.993 1267.24 718.021 1265.91 720.406 1264.97C722.791 1264.03 725.443 1263.57 728.34 1263.57C731.282 1263.57 733.934 1264.03 736.319 1264.99C738.704 1265.93 740.754 1267.29 742.47 1269.05C744.186 1270.79 745.479 1272.88 746.37 1275.31C747.262 1277.74 747.708 1280.39 747.708 1283.31ZM737.968 1283.31C737.968 1279.37 737.099 1276.29 735.361 1274.09C733.622 1271.9 731.282 1270.79 728.362 1270.79C726.468 1270.79 724.796 1271.28 723.348 1272.26C721.899 1273.24 720.785 1274.69 720.005 1276.6C719.225 1278.52 718.824 1280.77 718.824 1283.31C718.824 1285.85 719.202 1288.06 719.982 1289.95C720.762 1291.85 721.855 1293.3 723.281 1294.3C724.707 1295.3 726.401 1295.79 728.34 1295.79C731.282 1295.79 733.6 1294.7 735.338 1292.47C737.077 1290.29 737.968 1287.21 737.968 1283.31ZM764.935 1289.02V1297.11C764.935 1299.07 764.467 1300.54 763.554 1301.52C762.64 1302.5 761.459 1302.99 760.055 1302.99C758.651 1302.99 757.514 1302.5 756.622 1301.5C755.731 1300.5 755.285 1299.05 755.285 1297.11V1270.12C755.285 1265.77 756.867 1263.59 760.01 1263.59C761.615 1263.59 762.774 1264.1 763.487 1265.1C764.2 1266.13 764.579 1267.65 764.668 1269.63C765.827 1267.65 767.008 1266.13 768.234 1265.1C769.46 1264.08 771.087 1263.59 773.115 1263.59C775.143 1263.59 777.126 1264.1 779.043 1265.1C780.96 1266.13 781.918 1267.49 781.918 1269.16C781.918 1270.34 781.517 1271.32 780.692 1272.1C779.89 1272.88 778.998 1273.26 778.04 1273.26C777.684 1273.26 776.837 1273.04 775.477 1272.62C774.095 1272.17 772.914 1271.97 771.867 1271.97C770.44 1271.97 769.304 1272.35 768.39 1273.08C767.498 1273.84 766.785 1274.93 766.295 1276.4C765.805 1277.87 765.448 1279.61 765.27 1281.64C765.025 1283.65 764.935 1286.12 764.935 1289.02Z" fill="white"/>
<path d="M809.888 1297.58C807.526 1299.4 805.275 1300.74 803.091 1301.65C800.907 1302.57 798.433 1303.01 795.714 1303.01C793.24 1303.01 791.033 1302.52 789.161 1301.54C787.289 1300.56 785.818 1299.25 784.815 1297.55C783.79 1295.86 783.3 1294.06 783.3 1292.09C783.3 1289.44 784.124 1287.19 785.818 1285.32C787.512 1283.45 789.808 1282.2 792.772 1281.55C793.374 1281.42 794.911 1281.08 797.341 1280.59C799.77 1280.1 801.865 1279.66 803.603 1279.21C805.342 1278.81 807.236 1278.3 809.264 1277.72C809.153 1275.16 808.64 1273.28 807.726 1272.1C806.813 1270.9 804.918 1270.32 802.065 1270.32C799.614 1270.32 797.742 1270.65 796.516 1271.34C795.268 1272.04 794.198 1273.06 793.307 1274.44C792.415 1275.82 791.791 1276.72 791.434 1277.16C791.056 1277.61 790.276 1277.81 789.072 1277.81C787.98 1277.81 787.044 1277.45 786.242 1276.76C785.462 1276.07 785.06 1275.18 785.06 1274.09C785.06 1272.37 785.662 1270.72 786.866 1269.09C788.069 1267.49 789.964 1266.15 792.504 1265.13C795.067 1264.08 798.254 1263.57 802.065 1263.57C806.322 1263.57 809.688 1264.08 812.117 1265.08C814.546 1266.08 816.262 1267.67 817.288 1269.85C818.29 1272.04 818.803 1274.91 818.803 1278.52C818.803 1280.79 818.781 1282.73 818.781 1284.32C818.758 1285.9 818.758 1287.68 818.736 1289.62C818.736 1291.45 819.048 1293.34 819.65 1295.33C820.252 1297.29 820.541 1298.56 820.541 1299.14C820.541 1300.14 820.073 1301.03 819.137 1301.86C818.201 1302.66 817.131 1303.08 815.95 1303.08C814.947 1303.08 813.967 1302.61 813.008 1301.68C812.005 1300.67 810.958 1299.34 809.888 1297.58ZM809.242 1283.51C807.815 1284.03 805.765 1284.58 803.046 1285.16C800.349 1285.74 798.455 1286.19 797.43 1286.46C796.382 1286.72 795.402 1287.26 794.443 1288.06C793.507 1288.86 793.017 1289.95 793.017 1291.4C793.017 1292.87 793.574 1294.12 794.688 1295.15C795.803 1296.17 797.252 1296.71 799.057 1296.71C800.973 1296.71 802.734 1296.28 804.361 1295.44C805.988 1294.59 807.169 1293.52 807.927 1292.18C808.796 1290.71 809.242 1288.31 809.242 1284.92V1283.51ZM827.317 1264.46H828.386V1258.62C828.386 1257.06 828.431 1255.83 828.498 1254.94C828.587 1254.05 828.81 1253.27 829.189 1252.65C829.568 1251.98 830.103 1251.44 830.816 1251.02C831.529 1250.62 832.309 1250.39 833.2 1250.39C834.426 1250.39 835.518 1250.86 836.521 1251.78C837.19 1252.4 837.591 1253.14 837.791 1254.05C837.97 1254.94 838.059 1256.19 838.059 1257.84V1264.44H841.603C842.962 1264.44 844.032 1264.77 844.745 1265.42C845.481 1266.06 845.837 1266.91 845.837 1267.91C845.837 1269.23 845.325 1270.14 844.277 1270.65C843.252 1271.17 841.781 1271.43 839.864 1271.43H838.059V1289.24C838.059 1290.76 838.104 1291.94 838.215 1292.74C838.326 1293.54 838.594 1294.21 839.062 1294.72C839.53 1295.24 840.288 1295.48 841.335 1295.48C841.892 1295.48 842.672 1295.39 843.631 1295.17C844.611 1294.97 845.369 1294.86 845.904 1294.86C846.684 1294.86 847.397 1295.17 848.021 1295.79C848.645 1296.42 848.957 1297.2 848.957 1298.11C848.957 1299.67 848.111 1300.85 846.417 1301.68C844.701 1302.52 842.271 1302.93 839.062 1302.93C836.031 1302.93 833.735 1302.41 832.198 1301.39C830.637 1300.36 829.612 1298.96 829.122 1297.15C828.632 1295.37 828.386 1292.96 828.386 1289.95V1271.34H827.116C825.712 1271.34 824.642 1271.01 823.907 1270.34C823.171 1269.7 822.815 1268.85 822.815 1267.82C822.815 1266.82 823.194 1265.97 823.974 1265.33C824.731 1264.79 825.846 1264.46 827.317 1264.46ZM862.196 1269.09V1297.11C862.196 1299.05 861.728 1300.52 860.814 1301.5C859.9 1302.48 858.719 1302.99 857.315 1302.99C855.889 1302.99 854.752 1302.48 853.86 1301.45C852.969 1300.43 852.523 1298.98 852.523 1297.09V1269.36C852.523 1267.44 852.969 1266 853.86 1265.02C854.752 1264.03 855.889 1263.57 857.315 1263.57C858.741 1263.57 859.9 1264.06 860.814 1265.02C861.728 1266.02 862.196 1267.38 862.196 1269.09ZM857.404 1259.09C856.067 1259.09 854.908 1258.69 853.95 1257.84C852.991 1257.01 852.523 1255.83 852.523 1254.32C852.523 1252.96 853.014 1251.84 853.994 1250.95C854.975 1250.06 856.112 1249.61 857.404 1249.61C858.675 1249.61 859.767 1250.02 860.747 1250.82C861.728 1251.62 862.196 1252.8 862.196 1254.32C862.196 1255.81 861.728 1256.97 860.769 1257.82C859.833 1258.66 858.719 1259.09 857.404 1259.09ZM908.531 1283.31C908.531 1286.21 908.085 1288.86 907.193 1291.29C906.28 1293.72 904.987 1295.82 903.271 1297.58C901.577 1299.34 899.527 1300.67 897.164 1301.61C894.802 1302.55 892.127 1303.01 889.185 1303.01C886.243 1303.01 883.591 1302.55 881.251 1301.59C878.911 1300.65 876.883 1299.29 875.145 1297.51C873.428 1295.75 872.136 1293.68 871.244 1291.27C870.353 1288.86 869.907 1286.21 869.907 1283.29C869.907 1280.35 870.353 1277.67 871.244 1275.22C872.158 1272.79 873.428 1270.7 875.122 1268.96C876.816 1267.24 878.844 1265.91 881.229 1264.97C883.614 1264.03 886.266 1263.57 889.163 1263.57C892.105 1263.57 894.757 1264.03 897.142 1264.99C899.527 1265.93 901.577 1267.29 903.293 1269.05C905.009 1270.79 906.302 1272.88 907.193 1275.31C908.063 1277.74 908.531 1280.39 908.531 1283.31ZM898.769 1283.31C898.769 1279.37 897.9 1276.29 896.161 1274.09C894.423 1271.9 892.083 1270.79 889.163 1270.79C887.269 1270.79 885.597 1271.28 884.149 1272.26C882.7 1273.24 881.586 1274.69 880.806 1276.6C880.026 1278.52 879.624 1280.77 879.624 1283.31C879.624 1285.85 880.003 1288.06 880.783 1289.95C881.563 1291.85 882.655 1293.3 884.082 1294.3C885.508 1295.3 887.202 1295.79 889.141 1295.79C892.083 1295.79 894.401 1294.7 896.139 1292.47C897.9 1290.29 898.769 1287.21 898.769 1283.31ZM924.934 1268.94V1270.12C926.65 1267.87 928.5 1266.22 930.528 1265.17C932.556 1264.12 934.874 1263.59 937.504 1263.59C940.067 1263.59 942.34 1264.15 944.368 1265.26C946.374 1266.35 947.889 1267.93 948.87 1269.99C949.516 1271.17 949.918 1272.44 950.118 1273.82C950.296 1275.2 950.408 1276.94 950.408 1279.06V1297.11C950.408 1299.05 949.962 1300.52 949.071 1301.5C948.179 1302.5 947.02 1302.99 945.594 1302.99C944.145 1302.99 942.986 1302.48 942.073 1301.45C941.181 1300.43 940.735 1298.98 940.735 1297.09V1280.93C940.735 1277.74 940.29 1275.29 939.398 1273.6C938.507 1271.9 936.746 1271.05 934.094 1271.05C932.378 1271.05 930.795 1271.57 929.369 1272.59C927.943 1273.62 926.917 1275.04 926.249 1276.85C925.781 1278.3 925.536 1280.97 925.536 1284.94V1297.11C925.536 1299.07 925.068 1300.54 924.176 1301.52C923.262 1302.5 922.081 1302.99 920.655 1302.99C919.251 1302.99 918.114 1302.48 917.2 1301.45C916.309 1300.43 915.863 1298.98 915.863 1297.09V1269.07C915.863 1267.22 916.264 1265.84 917.066 1264.95C917.869 1264.03 918.961 1263.59 920.365 1263.59C921.212 1263.59 921.992 1263.79 922.661 1264.19C923.351 1264.59 923.886 1265.19 924.31 1266C924.733 1266.8 924.934 1267.8 924.934 1268.94Z" fill="white"/>
<path d="M467.471 708.976H459.224V677.774C456.216 680.604 452.65 682.699 448.571 684.059V676.526C450.733 675.812 453.073 674.498 455.592 672.514C458.11 670.553 459.848 668.257 460.784 665.627H467.471V708.976ZM479.572 697.542L487.573 696.562C487.819 698.612 488.51 700.172 489.624 701.264C490.738 702.356 492.075 702.891 493.658 702.891C495.352 702.891 496.778 702.245 497.937 700.952C499.096 699.66 499.675 697.899 499.675 695.693C499.675 693.62 499.118 691.971 498.004 690.745C496.889 689.541 495.53 688.917 493.925 688.917C492.878 688.917 491.607 689.118 490.159 689.541L491.073 682.833C493.301 682.9 494.995 682.409 496.176 681.362C497.358 680.337 497.937 678.955 497.937 677.239C497.937 675.79 497.514 674.631 496.644 673.762C495.775 672.893 494.638 672.469 493.212 672.469C491.808 672.469 490.582 672.96 489.602 673.94C488.599 674.921 487.997 676.37 487.774 678.242L480.196 676.949C480.731 674.319 481.511 672.224 482.604 670.642C483.673 669.082 485.167 667.834 487.061 666.942C488.978 666.051 491.117 665.605 493.48 665.605C497.536 665.605 500.79 666.898 503.241 669.505C505.247 671.623 506.272 674.052 506.272 676.726C506.272 680.515 504.2 683.568 500.054 685.819C502.528 686.354 504.489 687.535 505.983 689.385C507.454 691.235 508.189 693.464 508.189 696.071C508.189 699.86 506.807 703.092 504.044 705.766C501.28 708.441 497.848 709.778 493.725 709.778C489.824 709.778 486.593 708.664 484.03 706.39C481.489 704.139 479.996 701.197 479.572 697.542ZM513.426 697.921L521.673 697.074C521.918 698.946 522.609 700.417 523.768 701.509C524.927 702.602 526.264 703.136 527.779 703.136C529.495 703.136 530.966 702.445 532.17 701.019C533.351 699.593 533.975 697.475 533.975 694.645C533.975 691.971 533.373 689.987 532.192 688.65C531.011 687.313 529.473 686.644 527.556 686.644C525.172 686.644 523.032 687.691 521.16 689.764L514.474 688.806L518.686 666.407H540.55V674.119H524.971L523.656 681.451C525.484 680.537 527.378 680.069 529.295 680.069C532.972 680.069 536.092 681.407 538.633 684.081C541.196 686.755 542.467 690.232 542.467 694.489C542.467 698.055 541.441 701.22 539.369 704.028C536.56 707.839 532.66 709.756 527.69 709.756C523.701 709.756 520.447 708.686 517.951 706.546C515.41 704.407 513.917 701.532 513.426 697.921ZM546.812 674.052V666.407H575.117V672.425C572.777 674.72 570.414 678.019 567.985 682.32C565.578 686.622 563.728 691.191 562.458 696.027C561.188 700.863 560.564 705.187 560.586 708.998H552.629C552.763 703.025 553.989 696.941 556.307 690.722C558.625 684.527 561.723 678.955 565.6 674.074H546.812V674.052Z" fill="white"/>
<path d="M233.992 979.385V980.075C233.992 1001.45 225.99 1016.49 209.988 1025.25C197.619 1032.03 178.675 1035.41 153.134 1035.41C129.956 1035.41 113.374 1032.43 103.434 1026.59C91.8003 1019.75 85.9833 1008.31 85.9833 992.177C85.9833 985.023 87.1423 977.78 89.6384 970.559C92.4243 962.469 96.1016 958.479 100.559 958.479C104.281 958.479 106.175 961.689 106.175 968.107C106.175 975.64 108.382 981.012 112.594 984.444C119.414 989.993 133.41 992.868 154.761 992.868C174.262 992.868 186.208 992.69 190.532 992.4C199.224 991.821 204.929 990.283 207.983 988.611C209.543 987.764 210.501 987.23 210.501 986.36C210.501 985.625 209.877 984.355 208.495 982.772C205.732 979.585 200.606 976.198 193.674 971.918C192.76 971.339 192.426 970.381 192.426 969.578C192.426 969.199 192.493 968.843 192.694 968.553L210.768 939.446C211.192 938.755 211.704 938.421 212.395 938.421C212.997 938.421 213.71 938.599 214.401 939.223C227.372 950.723 233.992 964.252 233.992 979.385ZM179.232 938.622C179.477 939 179.611 939.357 179.611 939.624C179.611 940.159 179.388 940.739 178.876 941.185L166.328 952.194C165.882 952.573 165.548 952.952 165.035 952.952C164.567 952.952 164.055 952.662 163.542 952.194L151.641 941.63L140.074 952.194C139.673 952.573 139.227 952.841 138.692 952.841C138.18 952.841 137.622 952.662 137.065 952.194L124.25 941.185C123.849 940.828 123.648 940.427 123.648 939.959C123.648 939.379 123.827 938.666 124.495 938.042L136.062 927.634C136.731 927.032 137.4 926.72 138.068 926.72C138.625 926.72 139.16 927.099 139.829 927.634L151.619 937.507L162.807 927.634C163.386 927.121 163.832 926.72 164.434 926.72C164.991 926.72 165.615 927.055 166.328 927.634L179.232 938.622ZM310.926 1024.78V1025.54C310.926 1048.56 304.062 1066.77 290.066 1079.88C288.394 1081.46 286.121 1082.13 283.424 1082.13H233.568C227.796 1082.13 224.898 1080.03 224.898 1075.87C224.898 1073.26 226.191 1071.43 228.799 1070.36C237.758 1066.73 249.147 1060.49 263.165 1051.88C280.906 1040.99 290.043 1033.3 290.043 1028.59V1028.48C290.043 1024.65 281.975 1016.25 265.84 1003.23L283.29 971.874C283.803 970.96 284.271 970.425 284.917 970.425C285.519 970.425 286.188 970.782 286.923 971.339C296.284 978.449 302.747 986.405 306.246 995.275C309.21 1002.79 310.926 1012.61 310.926 1024.78ZM362.521 1032.74C350.865 1032.52 342.039 1030.24 335.999 1025.9C328.243 1020.01 324.299 1010.03 324.165 995.944C324.031 981.836 323.652 967.84 323.095 953.844C322.159 935.256 321.201 923.333 320.175 918.006C320.086 917.315 320.042 916.669 320.042 915.978C320.042 914.017 320.688 912.613 321.936 911.743L352.826 892.354C354.676 891.083 356.124 890.437 357.239 890.437C357.885 890.437 358.353 891.128 358.621 892.465V976.264C358.621 983.909 362.655 988.322 370.789 989.503H375.536V1032.76H362.521V1032.74ZM468.852 894.894L464.952 926.297C464.952 927.567 464.818 928.369 464.618 928.748C464.35 929.127 463.637 929.484 462.478 929.774L418.773 942.098C426.306 950.099 431.321 956.563 433.862 961.488C437.94 969.177 440.08 977.78 440.236 987.341V988.143C440.236 1002.34 435.823 1013.26 426.953 1020.95C417.837 1028.79 405.223 1032.74 389.154 1032.74H369.831V989.48H379.615C389.822 989.48 395.951 989.414 397.957 989.258C407.719 988.611 412.733 987.074 412.912 984.667C412.912 983.931 412.399 982.839 411.374 981.413C408.544 977.735 403.284 972.654 395.572 966.079C391.338 962.714 385.031 957.632 376.762 950.813L382.423 920.257C382.713 918.808 383.493 917.917 384.652 917.538L466.891 893.334C467.404 893.29 468.005 893.223 468.652 893.134C468.763 893.245 468.852 893.869 468.852 894.894ZM654.86 1020.19C654.86 1043.48 647.572 1060.15 632.929 1070.14C622.566 1077.09 607.255 1080.57 587.085 1080.57C569.857 1080.57 556.061 1077.47 545.698 1071.27C533.707 1063.94 527.645 1053 527.489 1038.42V1037.78C527.489 1029.55 528.871 1020.75 531.613 1011.43C535.179 999.955 539.747 994.116 545.453 993.96C549.955 993.96 552.228 997.392 552.228 1004.28C552.228 1005.77 551.938 1008.25 551.337 1011.77C550.512 1016.16 549.999 1018.92 549.843 1019.95C549.843 1032.87 563.773 1039.34 591.676 1039.34C620.226 1039.34 634.579 1034.79 634.735 1025.65V1025.54C634.735 1023.33 631.681 1019.01 625.686 1012.57C619.468 1006.15 614.81 1001.83 611.645 999.688L629.207 968.865C630.01 966.993 630.879 966.079 631.681 966.079C633.776 966.079 636.874 969.244 640.841 975.596C643.627 980.142 645.856 984.132 647.527 987.452C652.431 998.886 654.86 1009.78 654.86 1020.19ZM599.499 959.571C599.922 959.883 600.145 960.218 600.145 960.574C600.145 961.042 599.855 961.533 599.276 962.023L585.168 974.905C584.7 975.44 584.188 975.707 583.675 975.707C583.207 975.707 582.605 975.44 581.914 974.905L567.472 962.134C567.004 961.756 566.737 961.377 566.737 960.909C566.737 960.307 567.116 959.683 567.851 958.992L581.313 946.801C581.87 946.199 582.427 945.887 582.94 945.887C583.497 945.887 584.098 946.199 584.7 946.801L599.499 959.571ZM711.268 1032.74C699.612 1032.52 690.787 1030.24 684.747 1025.9C676.991 1020.01 673.046 1010.03 672.912 995.944C672.779 981.836 672.4 967.84 671.843 953.844C670.907 935.256 669.948 923.333 668.923 918.006C668.834 917.315 668.789 916.669 668.789 915.978C668.789 914.017 669.436 912.613 670.684 911.743L701.573 892.354C703.423 891.083 704.872 890.437 705.986 890.437C706.633 890.437 707.101 891.128 707.368 892.465V976.264C707.368 983.909 711.402 988.322 719.537 989.503H724.284V1032.76H711.268V1032.74ZM811.917 1032.74H802.266C794.131 1032.74 786.621 1031.36 779.645 1028.64C772.691 1025.92 768.234 1022.22 766.228 1017.52C762.707 1022.96 758.807 1026.66 754.527 1028.62C749.424 1031.38 742.604 1032.74 734.09 1032.74H718.534V989.48H732.597C742.626 989.48 748.577 988.79 750.427 987.341C744.476 979.964 737.901 974.793 730.725 971.896C729.388 971.317 728.719 969.756 728.719 967.193C728.719 959.594 733.221 953.309 742.247 948.383C750.137 943.904 758.539 941.653 767.499 941.653C776.547 941.653 784.08 943.569 790.12 947.38C797.051 951.86 800.528 957.365 800.528 963.94C800.528 967.617 798.299 972.164 793.842 977.624C792.594 979.117 788.916 982.549 782.832 988.032C785.573 988.99 790.967 989.48 799.035 989.48H811.939V1032.74H811.917ZM782.052 911.275C782.565 911.654 782.832 912.122 782.832 912.613C782.832 912.991 782.565 913.504 782.052 914.061L767.476 926.52C767.053 926.854 766.652 927.055 766.228 927.055C765.716 927.055 765.069 926.854 764.222 926.52L750.048 914.061C749.535 913.638 749.268 913.147 749.268 912.613C749.268 912.122 749.558 911.543 750.159 910.941L763.442 898.75C764.133 898.148 764.824 897.881 765.448 897.881C766.139 897.881 766.808 898.148 767.454 898.75L782.052 911.275ZM880.494 976.933C880.494 1014.15 860.168 1032.74 819.606 1032.74H806.189V989.48H819.472C842.561 989.48 856.023 988.411 859.789 986.227C861.372 985.045 862.152 983.887 862.152 982.75C862.152 980.945 861.215 980.075 859.276 980.075H858.251C857.962 980.231 857.694 980.298 857.516 980.298C854.908 981.413 849.247 981.97 840.422 981.97C822.369 981.97 813.343 975.351 813.343 962.112C813.343 953.019 815.705 944.26 820.497 935.925C825.935 925.829 833.223 920.77 842.427 920.77C855.577 920.77 865.517 927.879 872.337 942.076C877.797 953.22 880.494 964.853 880.494 976.933ZM855.755 955.983C855.755 954.423 854.262 952.618 851.298 950.634C848.289 948.606 845.436 947.492 842.561 947.38C840.154 947.38 837.926 947.96 835.964 949.141C834.025 950.367 833.045 952.016 833.045 954.067C833.045 956.407 836.989 957.588 844.968 957.655H846.216C852.59 957.655 855.755 957.075 855.755 955.983ZM858.496 894.471C859.009 894.627 859.276 894.85 859.276 895.117C859.276 895.585 858.942 896.143 858.251 896.811L844.054 909.582C843.586 909.96 843.074 910.161 842.561 910.161C842.093 910.161 841.581 909.96 841.068 909.582L826.381 897.034C825.824 896.566 825.512 896.165 825.512 895.697C825.512 895.095 825.891 894.56 826.626 894.025L840.087 881.834C840.645 881.299 841.246 881.032 841.848 881.032C842.405 881.032 843.052 881.299 843.742 881.834L858.496 894.471ZM937.883 954.757C937.972 957.276 938.017 959.817 938.017 962.246C938.017 965.923 937.927 969.467 937.749 972.877C937.147 985.001 935.81 995.944 933.715 1005.73C931.709 1014.17 929.637 1020.53 927.453 1024.78C924.399 1030.24 921.702 1033.05 919.273 1033.19C916.264 1033.19 913.701 1029.78 911.651 1022.98C908.865 1014.17 902.87 981.257 893.576 924.269L925.469 893.134C927.475 891.195 928.812 890.192 929.503 890.192C930.238 890.192 930.751 891.039 930.996 892.666C933.827 904.188 935.788 917.382 936.858 932.337C937.437 940.182 937.794 947.626 937.883 954.757Z" fill="white"/>
<path d="M177.204 1039.98V1040.47C177.204 1047.87 175.065 1053.82 170.763 1058.32C166.351 1062.92 160.556 1065.23 153.357 1065.32H153.067C139.517 1065.32 132.719 1059.55 132.675 1047.98V1047.6C132.675 1043.39 134.079 1037.44 136.887 1029.71C140.275 1020.28 143.774 1015.58 147.451 1015.58C153.535 1015.58 159.62 1017.5 165.704 1021.4C173.282 1026.39 177.137 1032.58 177.204 1039.98ZM165.348 1041.39C165.348 1040.32 163.342 1038.87 159.286 1037.06C155.229 1035.24 152.065 1034.34 149.747 1034.34C148.588 1034.34 147.563 1035.04 146.627 1036.46C146.092 1037.73 145.802 1039 145.802 1040.25C145.802 1043.26 149.346 1044.75 156.366 1044.75C162.339 1044.73 165.348 1043.64 165.348 1041.39Z" fill="white"/>
</svg>
