<svg width="1024" height="962" viewBox="0 0 1024 962" fill="none" xmlns="http://www.w3.org/2000/svg">
<path fill-rule="evenodd" clip-rule="evenodd" d="M512.177 113.661C760.892 113.661 962.507 325.268 962.507 586.292C962.507 739.479 893.067 875.581 785.43 961.949C702.306 941.109 609.674 929.442 511.985 929.442C414.406 929.442 321.855 941.08 238.813 961.891C131.231 875.523 61.8184 739.421 61.8184 586.292C61.8184 325.268 263.462 113.661 512.177 113.661Z" fill="#E0E8EB"/>
<path fill-rule="evenodd" clip-rule="evenodd" d="M931.4 415.534C999.192 597.758 952.697 804.72 814.393 936.551H845.499C1008.01 791.018 1066.49 555.363 992.102 345.849C835.36 -95.68 240.407 -113.481 56.5704 286.885H57.4224C73.2779 277.597 140.162 291.93 152.638 301.303C161.156 288.748 164.701 284.706 174.126 273.384C382.694 23.0509 802.99 70.4056 931.4 415.534ZM15.2132 402.176C-31.2817 596.468 30.3816 803.975 178.495 936.58H209.602C71.2716 804.749 24.8039 597.787 92.5953 415.563C94.409 410.689 96.332 405.902 98.2831 401.144C92.4025 399.281 84.6813 399.052 70.6119 398.908C57.0371 398.765 43.4072 399.338 29.8599 400.542C24.7763 400.972 19.9122 401.545 15.2132 402.176Z" fill="#F4BA00"/>
<path fill-rule="evenodd" clip-rule="evenodd" d="M533.718 233.195C623.822 296.774 660.919 391.713 665.151 509.011C665.234 511.476 665.288 511.849 665.563 509.183C677.874 396.414 629.016 278.744 534.46 231.819C527.013 228.121 526.765 228.293 533.718 233.195Z" fill="#5CB3C4"/>
<path fill-rule="evenodd" clip-rule="evenodd" d="M545.729 173.629C682.356 189.853 785.046 273.928 854.541 396.758C856.025 399.367 856.299 399.768 855.118 396.672C807.084 268.682 678.262 167.896 545.867 171.622C535.178 171.938 535.067 172.367 545.729 173.629Z" fill="#5CB3C4"/>
<path fill-rule="evenodd" clip-rule="evenodd" d="M720.387 317.069C603.683 401.23 497.447 421.381 371.07 364.911C368.405 363.707 367.938 363.621 370.658 365.398C483.048 438.036 619.593 414.043 721.431 318.818C729.647 311.135 729.428 310.562 720.387 317.069Z" fill="#5CB3C4"/>
<path fill-rule="evenodd" clip-rule="evenodd" d="M569.333 213.072C706.097 295.169 766.36 424.735 779.357 587.811C779.632 591.251 779.715 591.767 779.989 588.012C791.723 430.067 712.775 269.657 570.35 211.094C559.138 206.479 558.781 206.737 569.333 213.072Z" fill="#5CB3C4"/>
<path fill-rule="evenodd" clip-rule="evenodd" d="M481.318 177.155C346.587 206.164 251.317 299.555 192.374 428.433C191.11 431.185 190.89 431.586 191.797 428.405C228.949 296.402 348.814 183.891 481.016 175.177C491.651 174.489 491.815 174.919 481.318 177.155Z" fill="#5CB3C4"/>
<path fill-rule="evenodd" clip-rule="evenodd" d="M476.153 216.541C378.162 271.635 333.288 361.787 321.142 476.562C320.895 478.97 320.812 479.342 320.702 476.705C315.316 365.026 373.957 253.518 475.493 215.136C483.462 212.097 483.71 212.27 476.153 216.541Z" fill="#5CB3C4"/>
<path fill-rule="evenodd" clip-rule="evenodd" d="M481.042 263.723C436.196 301.103 416.081 356.226 410.64 423.531C410.53 424.965 410.531 425.194 410.422 423.617C405.64 357.143 432.02 288.805 480.686 262.892C484.533 260.857 484.642 260.971 481.042 263.723Z" fill="#5CB3C4"/>
<path fill-rule="evenodd" clip-rule="evenodd" d="M658.448 248.129C576.752 311.881 500.992 329.367 408.826 292.389C406.875 291.615 406.545 291.557 408.551 292.732C491.072 341.693 588.513 320.624 659.245 249.333C664.933 243.629 664.768 243.199 658.448 248.129Z" fill="#5CB3C4"/>
<path fill-rule="evenodd" clip-rule="evenodd" d="M603.38 204.874C540.26 246.61 483.9 254.866 418.472 222.331C417.098 221.643 416.85 221.586 418.252 222.589C476.013 263.322 548.394 253.719 603.902 205.82C608.381 201.979 608.271 201.663 603.38 204.874Z" fill="#5CB3C4"/>
<path fill-rule="evenodd" clip-rule="evenodd" d="M145.851 362.36C119.526 362.102 95.8112 364.252 74.6796 368.867C1.63968 384.719 9.03198 335.214 57.2032 326.156C84.0229 321.082 109.771 318.473 134.392 318.388C175.968 318.216 183.443 319.19 215.319 348.4C247.058 377.495 280.499 416.652 308.088 455.464L270.194 456.009C252.718 434.137 233.399 412.925 212.268 392.458C182.783 363.908 186.108 362.761 145.851 362.36ZM338.756 502.618C368.104 552.496 393.934 610.514 416.275 676.673C417.429 680.084 420.259 682.32 423.721 682.549C503.439 687.738 584.53 693.872 666.94 701.01C670.128 701.268 672.986 699.806 674.717 697.026C689.885 672.66 706.923 623.041 725.857 548.196L726.405 548.253L737.397 502.59L749.351 449.101H748.856C752.456 432.446 756.111 415.018 759.821 396.787C759.986 395.956 760.673 395.382 761.47 395.382H762.899C763.393 395.382 763.805 395.583 764.134 395.956C764.464 396.328 764.602 396.758 764.575 397.274C756.166 516.034 728.934 623.528 682.824 719.699C681.285 722.881 678.262 724.745 674.827 724.573C567.355 718.725 473.514 714.798 393.274 712.791C389.262 712.705 385.937 709.753 385.167 705.625C371.565 631.296 343.701 562.385 301.576 498.92C313.474 500.096 325.923 501.328 338.756 502.618Z" fill="#02587B"/>
<path fill-rule="evenodd" clip-rule="evenodd" d="M184.292 469.625L734.371 461.713C728.601 488.057 722.968 512.365 717.5 534.609C626.763 523.057 262.828 477.422 187.672 478.941L184.292 469.625Z" fill="#02587B"/>
<path fill-rule="evenodd" clip-rule="evenodd" d="M423.665 595.78L694.776 618.168C690.764 631.124 686.889 642.762 683.069 653.11C618.355 638.52 460.707 603.548 424.984 600.825L423.665 595.78Z" fill="#02587B"/>
<path fill-rule="evenodd" clip-rule="evenodd" d="M422.044 729.36C439.329 729.36 453.342 743.979 453.342 762.009C453.342 780.04 439.329 794.659 422.044 794.659C404.76 794.659 390.745 780.04 390.745 762.009C390.773 743.979 404.76 729.36 422.044 729.36Z" fill="#02587B"/>
<path fill-rule="evenodd" clip-rule="evenodd" d="M633.827 734.032C651.111 734.032 665.126 748.651 665.126 766.682C665.126 784.712 651.111 799.331 633.827 799.331C616.542 799.331 602.527 784.712 602.527 766.682C602.527 748.651 616.542 734.032 633.827 734.032Z" fill="#02587B"/>
<path d="M457.272 911.871H447.104V871.74C443.395 875.38 438.998 878.074 433.97 879.823V870.134C436.635 869.217 439.52 867.526 442.625 864.975C445.731 862.452 447.874 859.5 449.028 856.117H457.272V911.871ZM472.194 897.166L482.058 895.904C482.361 898.542 483.212 900.548 484.586 901.953C485.96 903.357 487.609 904.045 489.56 904.045C491.649 904.045 493.407 903.214 494.836 901.551C496.265 899.889 496.98 897.624 496.98 894.786C496.98 892.121 496.293 889.999 494.919 888.423C493.545 886.875 491.869 886.072 489.89 886.072C488.599 886.072 487.033 886.33 485.246 886.875L486.372 878.247C489.12 878.333 491.209 877.702 492.665 876.355C494.121 875.036 494.836 873.259 494.836 871.052C494.836 869.188 494.314 867.698 493.242 866.58C492.17 865.462 490.769 864.917 489.01 864.917C487.279 864.917 485.769 865.548 484.56 866.809C483.323 868.07 482.58 869.934 482.305 872.341L472.963 870.679C473.622 867.296 474.584 864.602 475.931 862.567C477.25 860.56 479.091 858.955 481.426 857.808C483.79 856.662 486.427 856.089 489.34 856.089C494.341 856.089 498.353 857.751 501.376 861.105C503.849 863.828 505.114 866.953 505.114 870.392C505.114 875.265 502.558 879.192 497.447 882.088C500.497 882.776 502.915 884.295 504.756 886.674C506.569 889.053 507.477 891.92 507.477 895.274C507.477 900.147 505.773 904.303 502.366 907.743C498.959 911.183 494.726 912.903 489.642 912.903C484.833 912.903 480.85 911.469 477.69 908.545C474.557 905.65 472.716 901.867 472.194 897.166ZM513.935 897.653L524.101 896.564C524.404 898.972 525.255 900.863 526.684 902.268C528.113 903.673 529.763 904.36 531.631 904.36C533.747 904.36 535.56 903.472 537.044 901.637C538.5 899.803 539.27 897.079 539.27 893.439C539.27 889.999 538.528 887.448 537.072 885.728C535.616 884.008 533.719 883.148 531.356 883.148C528.416 883.148 525.778 884.496 523.469 887.161L515.225 885.929L520.419 857.12H547.377V867.038H528.168L526.547 876.469C528.801 875.294 531.137 874.692 533.5 874.692C538.034 874.692 541.881 876.412 545.014 879.852C548.174 883.291 549.74 887.763 549.74 893.238C549.74 897.825 548.475 901.895 545.92 905.507C542.457 910.409 537.649 912.874 531.521 912.874C526.602 912.874 522.59 911.498 519.512 908.746C516.38 905.994 514.539 902.297 513.935 897.653ZM555.099 866.952V857.12H589.996V864.86C587.111 867.812 584.199 872.055 581.204 877.587C578.236 883.12 575.955 888.996 574.389 895.216C572.823 901.436 572.052 906.998 572.08 911.899H562.27C562.435 904.217 563.946 896.392 566.804 888.394C569.662 880.425 573.481 873.259 578.263 866.981H555.099V866.952Z" fill="#02587B"/>
</svg>
